<svg width="41" height="22" viewBox="0 0 41 22" fill="none" xmlns="http://www.w3.org/2000/svg">
<path id="circle" fill-rule="evenodd" clip-rule="evenodd" d="M15.7735 10.9944C15.7735 13.8227 13.4807 16.1155 10.6524 16.1155C7.82406 16.1155 5.53126 13.8227 5.53126 10.9944C5.53126 8.1661 7.82406 5.8733 10.6524 5.8733C13.4807 5.8733 15.7735 8.1661 15.7735 10.9944ZM20.6621 13.1742C19.663 17.7837 15.561 21.2366 10.6524 21.2366C4.99575 21.2366 0.410156 16.651 0.410156 10.9944C0.410156 5.33779 4.99575 0.752197 10.6524 0.752197C15.561 0.752197 19.663 4.20517 20.6621 8.81461C21.6612 4.20517 25.7633 0.752197 30.6719 0.752197C36.3285 0.752197 40.9141 5.33779 40.9141 10.9944C40.9141 16.651 36.3285 21.2366 30.6719 21.2366C25.7633 21.2366 21.6612 17.7837 20.6621 13.1742ZM35.793 10.9944C35.793 13.8227 33.5002 16.1155 30.6719 16.1155C27.8436 16.1155 25.5508 13.8227 25.5508 10.9944C25.5508 8.1661 27.8436 5.8733 30.6719 5.8733C33.5002 5.8733 35.793 8.1661 35.793 10.9944Z" fill="url(#paint0_linear_430_11687)"/>
<defs>
<linearGradient id="paint0_linear_430_11687" x1="0.410156" y1="10.9944" x2="40.9141" y2="10.9944" gradientUnits="userSpaceOnUse">
<stop stop-color="#145BF0"/>
<stop offset="1" stop-color="#1DC66D"/>
</linearGradient>
</defs>
</svg>
